<svg xmlns="http://www.w3.org/2000/svg" width="304" height="362" fill="none"><path stroke="#fff" stroke-miterlimit="10" stroke-width="2" d="M190.985 127.81s21.072 9.839 16.456 56.949c-4.615 47.11-59.233 136.228-66.155 145.139-6.923 8.91-34.232 35.222-70.008 30.551-35.776-4.671-54.202-28.896-54.202-28.896m10.757-107.198c-8.605-9.437-41.761-51.216-1.18-95.617 46.16-50.507 85.935 12.338 85.935 12.338m21.428-15.21c-.078-10.298 2.038-30.752 18.486-41.625m0 0c.477-.316.963-.622 1.466-.919 24.239-14.424 49.24-2.115 58.852 5.944 9.621 8.068 15.39 15.467 18.851 19.832 3.461 4.364 18.46 34.064 23.848 40.429 5.378 6.365 40.382 36.926 46.151 68.75 5.769 31.834-8.84 48.383-13.073 57.294-4.234 8.911-20.768 28.436-38.466 37.768-17.697 9.342-46.541 9.342-66.156 0-11.216-5.331-18.165-12.194-22.06-17.094m-9.413-212.004C134.267 46.185 147.427 1 147.427 1m-2.012 34.38s19.71-22.071 53.941-16.128c34.232 5.944 47.071 31.404 47.071 31.404s-13.429-2.967-37.554 10.184c-24.125 13.15-46.516-.422-51.096-2.968-4.572-2.545-11.477-11.916-9.369-15.505 2.108-3.59 14.027-11.227 37.103-8.681 23.076 2.546 38.847 12.309 38.847 12.309m-58.852-8.5s4.234 7.638 17.307 11.457c13.073 3.819 21.54 2.967 21.54 2.967m-18.842-18.242s10.384-8.49 18.851-7.638m-19.241 95.913c17.636 14.089 15.389 37.348 11.537 52.623-3.851 15.276-28.462 68.329-35.003 81.902-6.541 13.581-36.54 59.408-44.235 67.056-7.694 7.638-42.698 47.109-87.314 18.673-44.616-28.436-25.374-78.513-22.685-87.424 2.689-8.91 27.69-40.314 38.847-52.622 11.156-12.309 56.544-53.475 70.007-64.08 13.464-10.605 46.542-33.959 68.846-16.128Zm-75.005 89.118c10.384 8.911 29.617 28.437 10.002 62.807-19.614 34.37-50.003 18.252-58.08 12.73-8.076-5.523-35.003-33.528 0-68.751 21.107-21.238 48.078-6.786 48.078-6.786Z"/></svg>