<svg xmlns="http://www.w3.org/2000/svg" width="457" height="390" fill="none"><path stroke="#fff" stroke-miterlimit="10" stroke-width="2" d="M387.057 41.86C423.683 19.6 455.673.971 455.673.971M146.227 238.338c-6.648 7.751-12.942 15.497-18.778 23.167m127.256-63.534s-.005-.028-.026-.091c-.287-1.209-3.191-13.968-1.584-31.926 1.136-12.703 4.523-28.005 12.7-43.647l-.002-.01.009-.002-.001-.009.008-.002-.001-.009m-.585.012.001.01.009-.002m1.077 4.075s-5.684 29.341 30.931 40.679m-43.717-1.207c-14.455 7.854-20.582 20.095-22.288 24.142m-54.459 88.933c10.374 3.211 24.331 3.145 42.897-4.261m20.272-70.635c-1.309-3.867-3.716-9.325-7.942-14.346-5.441-6.459-13.894-12.187-26.888-12.853-6.155-.321-13.333.497-21.7 2.914-37.212 10.752-40.243 40.919-37.92 59.114.85 6.614 2.401 11.645 3.281 13.594 1.015 2.254 3.344 7.173 7.606 12.243m-70.567 29.891c-9.067 16.005-13.826 37.969-4.7 60.114 13.747 33.383 41.974 39.059 71.189 29.755 29.214-9.305 44.531-47.126 40.782-69.519-1.986-11.884-6.483-26.033-15.389-36.562-5.014-5.94-11.443-10.724-19.613-13.313-4.645-1.475-9.863-2.228-15.705-2.086-5.995.149-11.132.63-15.539 1.329m-44.836 88.772c-18.476 22.768-42.549 20.003-58.036 6.987-4.424-3.719-8.158-8.284-10.844-13.324a53.114 53.114 0 0 1-5.783-18.002c-2.33-17.155 3.67-33.679 11.647-42.823 7.665-8.791 21.465-11.821 28.784-12.842m-34.876 56.865s-9.472-5.177-11.358 2.612c-1.887 7.79 6.825 10.956 9.195 18.592 2.37 7.637.458 17.988 4.725 20.029 4.265 2.031 10.243-1.015 9.232-11.364M369.324 52.193s-21.406 12.567-14.819 49.926c6.588 37.369 32.463 46.74 32.463 46.74 18.89-26.835 16.8-55.887 13.243-79.473-1.942-12.923-8.151-22.16-14.039-26.583m0 0a19.718 19.718 0 0 0-2.264-1.477c-3.983-2.19-6.357-.83-9.059.99-7.505 5.053-1.893 11.318 7.202 7.433 1.898-.805 4.165-3.49 4.121-6.946Zm0 0c.006-.842-.09-1.747-.284-2.696-1.465-7.328-8.782-17.582-28.4-26.997C324.96-2.497 284.813 2.268 284.813 2.268s21.22 30.902 40.125 49.344m0 0c13.299-3.28 24.311-2.906 28.702-2.48 9.247.897 10.94 10.5-5.722 15.628-5.399 1.66-13.92-4.319-22.98-13.148Zm0 0c-14.731 3.631-32.276 11.754-46.747 29.257 0 0 34.188 5.907 58.588-8.789-14.203 9.312-39.954 25.227-48.753 31.93-7.041 5.361-15.129 11.756-23.935 18.982l.002.009-.009.002-.009.002.002.009m-42.849 37.866a1095.198 1095.198 0 0 0-16.795 15.557m48.992-39.785s-17.851 18.873-46.164 28.568c-28.312 9.695-64.183 9.031-64.183 9.031s-.736-19.031 33.828-49.456c34.565-30.425 69.729-12.875 75.816-7.866 6.078 5.011 5.031 10.267-5.924 12.013-10.955 1.746-42.869-29.775-50.423-51.611-8.219-23.756-8.695-49.309-8.695-49.309s33.507 15.425 59.816 43.745c26.31 28.32 15.262 47.389 15.262 47.389l-.01-.008m-56.888-16.87s-23.717-9.375-32.559-7.276c0 0-28.954-63.738-109.738-10.67 0 0 16.642 28.248 52.224 27.699 35.583-.55 48.997-17.535 48.997-17.535s-67.096-1.554-72.85-9.873m149.344 15.383s-22.525-31.397-26.167-35.484c-2.286-2.56-13.507.387-5.435 12.2 8.994 13.16 25.794 7.996 25.794 7.996m-3.298 43.45s-54.653 10.993-65.242 27.384m23.603-30.954s22.513.426 32.823 12.2m78.335-68.564s12.927 2.96 24.486.564l11.559-2.396m23.125-19.366s-22.358-29.677-43.003-28.654m61.672 44.25s-5.126 26.516-.839 46.087c4.288 19.57-6.896 16.519-9.098 4.081-2.203-12.439 11.858-20.868 11.858-20.868m-12.739-27.877s11.73 4.587 15.034 14.117m-101.92 119.3s4.64-32.013 42.138-39.998c32.257-6.863 48.874 33.057 43.649 50.871-3.112 10.618-12.642 36.25-53.764 38.901M103.1 77.973s21.582 2.346 29.056 18.999M349.06 26.385s-16.145 9.869-29.138 2.834m-61.886 169.17c-5.867.833-13.306 4.102-18.184 7.291-21.836 15.424-31.573 43.787-20.864 69.796 2.926 7.099 8.219 16.476 14.747 20.94 37.576 25.703 72.986-10.251 76.018-21.386 1.32-4.847 6.173-17.462 3.973-35.356 0 0-2.879-21.643-19.992-33.868-16.72-11.96-35.698-7.417-35.698-7.417Zm-130.209 62.136s-.528.719-1.514 1.939c-21.296 4.913-25.183 11.284-25.183 11.284-5.553 4.298-11.241 10.873-15.83 18.987-5.617 1.257-11.395 1.135-17.055-1.155-10.322-4.174-17.213-11.018-21.764-18.469-7.924-12.959-9.055-23.599-8.243-33.589 1.045-12.897 10.65-21.908 10.65-21.908 13.45-16.346 44.348-26.683 65.091-8.383 20.732 18.293 13.848 51.294 13.848 51.294Zm-70.109-18.402c2.851-2.153 2.615-18.352 10.618-15.279 8.004 3.073 8.714 15.101 5.636 17.095-3.08 1.993-9.611 4.995-10.467 2.414-.855-2.58.988-4.722 2.204-3.498 1.224 1.212 3.61 18.198-.596 20.664-4.206 2.465-14.318-7.973-11.29-9.125 3.026-1.151 3.555-.425 3.882 1.429.327 1.854-6.463 10.259-11.184 4.076-4.72-6.184-.282-15.33 3.616-14.947 3.914.37 7.581-2.829 7.581-2.829Zm202.905 25.494c2.383-.587 1.209-15.357 8.714-13.858 7.506 1.498 8.965 12.024 7.271 14.969-1.694 2.945-5.809 2.404-5.119-.521.691-2.925 18.562-11.94 20.152-4.219 1.59 7.72-3.73 17.464-10.165 17.458-6.434-.007-7.742-3.97-10.492-2.482-2.75 1.488 3.128 15.04-6.714 14.752-9.841-.288-10.641-17.352-8.076-17.626 2.567-.265 3.87.28 4.112 2.779.241 2.499-3.687 8.725-13.02 2.576-9.336-6.157-2.662-16.203 2.013-17.069 4.664-.872 5.056 4.79 11.324 3.241Zm-134.357 78.499c2.42.143 5.214-14.49 11.953-10.792 6.738 3.697 5.348 14.312 2.958 16.647-2.388 2.344-6.164.585-4.731-2.038 1.432-2.623 20.8-5.988 20.271 1.954-.529 7.942-8.161 15.772-14.279 13.842-6.12-1.94-6.312-6.156-9.323-5.54-3.011.616-1.003 15.478-10.28 12.25-9.277-3.228-5.532-19.971-3.021-19.464 2.511.506 3.609 1.433 3.178 3.922-.431 2.488-5.815 7.335-13.064-1.407s1.753-16.466 6.424-15.9c4.67.556 3.555 6.157 9.914 6.526Zm204.568-142.783c6.835.475.412 9.293 5.285 10.846 3.416 1.08 7.836 3.315 6.602 8.886-.983 4.425-12.585 11.028-18.41-.454-3.007-5.921 6.19-4.576 5.928-1.79-.227 2.373-3.832 10.271-8.337 9.818-4.514-.452-8.871-3.77-6.948-9.712 1.306-4.037 6.106-2.939 6.948-9.863.728-6.022 3.081-8.134 8.932-7.731ZM159.8 218.909c3.673-3.482 6.578 7.55 8.434 7.557 2.861-.001 3.838-9.593 8-.605 4.163 8.988-2.628 14.119-4.771 11.708-2.144-2.412-.067-4.16.685-3.626.761.531 5.748 12.381.839 17.969-4.908 5.598-13.282-10.324-11.113-10.824 2.169-.5 5.528.662 2.608 3.176-2.92 2.514-8.058 1.733-8.362-6.625-.304-8.357 4.538-3.032 5.162-6.334.625-3.302-6.04-8.08-1.482-12.396Z"/></svg>