<svg width="28" height="22" fill="none" xmlns="http://www.w3.org/2000/svg"><g clip-path="url(#a)"><path d="M28 2.61a11.76 11.76 0 0 1-3.3.871 5.608 5.608 0 0 0 2.525-3.07 11.819 11.819 0 0 1-3.646 1.348A5.795 5.795 0 0 0 20.645.135a5.931 5.931 0 0 0-3.372.254 5.714 5.714 0 0 0-2.64 2.043 5.422 5.422 0 0 0-.993 3.124c0 .437.05.86.151 1.264a16.727 16.727 0 0 1-6.56-1.68c-2.041-1-3.841-2.404-5.283-4.121a5.368 5.368 0 0 0-.778 2.793c0 1.925 1.012 3.625 2.556 4.621a5.862 5.862 0 0 1-2.601-.697v.071c-.001 1.283.458 2.526 1.298 3.518a5.78 5.78 0 0 0 3.31 1.927 5.912 5.912 0 0 1-2.595.096 5.572 5.572 0 0 0 2.043 2.76 5.884 5.884 0 0 0 3.322 1.1 11.676 11.676 0 0 1-4.015 1.965 11.904 11.904 0 0 1-4.488.33A16.656 16.656 0 0 0 8.805 22c10.567 0 16.347-8.462 16.347-15.8 0-.238-.01-.481-.018-.72A11.556 11.556 0 0 0 28 2.61z" fill="#fff"/></g><defs><clipPath id="a"><path fill="#fff" d="M0 0h28v22H0z"/></clipPath></defs></svg>