<svg xmlns="http://www.w3.org/2000/svg" width="128" height="128" fill="none"><path fill="#fff" d="M91.5 12.624 87 19.248s2.452 1.908 3.624 4.628c1.016 2.388 1.752 5.188-2.124 9.872L85 37.252C73.22 27.22 61.248 26.748 61.248 26.748H59l-1.252 2s-10.2 17.344-20 35.252c-4.9 8.952-9.748 18.064-13.116 25.252-1.692 3.592-3.02 6.72-3.88 9.248-.42 1.264-.72 2.328-.872 3.5-.16 1.172-.596 2.78 1.372 4.752 1.972 1.968 3.58 1.528 4.752 1.372 1.172-.156 2.236-.452 3.5-.872 2.532-.86 5.656-2.188 9.252-3.88C45.932 100 55.044 95.16 64 90.256c17.892-9.816 35.252-20 35.252-20l2-1.252v-2.376s-.532-11.828-10.5-23.624l1.372-1.5c.344-.344.656-.58 1-.876l1-.876c4.72-3.624 9.188-3.48 13.128-2.496a23.117 23.117 0 0 1 7.624 3.496l5-6.248s-4.44-3.42-10.752-5a25.279 25.279 0 0 0-4.248-.624L113 20.752l-5.752-5.748-8.372 8.376A14.888 14.888 0 0 0 98 20.628c-2.252-5.248-6.5-8-6.5-8v-.004ZM63.248 35.248c2.628.252 10.144 1.344 19.128 10.376 9 9.064 10.108 16.52 10.372 19.124-.656.392-4.076 2.456-6.748 4a46.574 46.574 0 0 0-5.252-8.872l-6.372 4.876c2.812 3.748 3.968 6.328 4.624 8-6.265 3.55-12.557 7.05-18.876 10.5-.388.2-.732.42-1.124.624-.736-2.188-1.936-4.828-4.124-7.876l-6.5 4.624c1.968 2.752 2.936 5.016 3.376 6.5.076.252.076.312.12.5-5.98 3.204-11.76 6.28-16.496 8.5-2.468 1.16-4.22 1.8-6 2.5.704-1.78 1.344-3.532 2.5-6 3.232-6.888 8.016-15.872 12.872-24.748A978.828 978.828 0 0 1 51 56.624c1.28 1.124 2.936 2.64 4.752 5L62 56.748a41.292 41.292 0 0 0-7-7.248c4.188-7.344 7.532-13.016 8.252-14.252h-.004Z"/></svg>