<svg xmlns="http://www.w3.org/2000/svg" width="128" height="128" fill="none"><path fill="currentColor" d="m42 22 2.252 5.5c1.404 3.42 3.312 11.968 2.872 16-5.452 3.36-8.796 6.64-11.376 9.376C32.596 50.328 26.36 46 16 46h-4v4c0 7.656 2.764 13.876 3.752 16-1 2.108-3.752 8.108-3.752 16v4h4c10.28 0 16.592-4.344 19.752-6.876C40.484 84 47.232 89.14 55.752 93c-.376 2.484-.672 5.952.372 10l.752 3H60c4.936 0 9.188-2.452 12.624-4.624 2.812-1.784 4.172-3.032 4.876-3.628 15.908-.56 26.064-9.14 31.5-17.624 5.624-8.764 7-17.5 7-17.5l.124-1-.372-1s-9.16-25.156-34-26.376c-2.64-3.2-6.332-5.856-11.5-8C64.14 23.72 56.452 22 48 22h-6Zm11.624 8.5c5.048.56 9.768 1.58 13.5 3.124 5.112 2.112 8.672 5.14 9.5 6.5L77.752 42H80c19.984 0 27.172 18.92 27.752 20.5-.28 1.468-1.44 7.048-5.5 13.376C97.608 83.108 90.092 90 76 90h-1.5l-1.124 1s-2.112 1.8-5 3.624c-1.52.956-2.812 1.128-4.376 1.752.16-1.828 0-4.5 0-4.5l.876-3.5-3.252-1.128C51.72 83.468 43.296 76.344 39 71.376l-2.752-3.252-3 3S27.92 74.86 21 76.624c1.032-4.688 2.624-8.872 2.624-8.872L24.5 66l-.876-1.752s-1.732-4.592-2.748-9.5c7.372 1.628 12.372 6.128 12.372 6.128l3 3L39 60.624c3.58-4.044 13.22-14.124 27.376-16l-1.128-7.876c-3.828.504-7.168 1.612-10.372 2.88-.204-3.36-.376-6.252-1.252-9.128ZM90 58a6 6 0 1 0 0 12 6 6 0 0 0 0-12Z"/></svg>