<svg xmlns="http://www.w3.org/2000/svg" width="330" height="287" fill="none"><path stroke="#fff" stroke-linecap="round" stroke-linejoin="round" stroke-width="2" d="M111.383 100.799c-9.786-13.213-22.519-41.288-14.342-59.335C112.21 7.987 166.004-5.209 183.991 5.22c-4.252.363-17.65 5.53-31.624 14.312-12.703 7.983-17.951 29.004-1.571 15.3 5.734-4.798 22.279-17.355 33.186-19.92 22.089-5.192 43.387-1.62 57.541 11.815-9.9-.306-28.888-.13-49.323 7.206-25.544 9.17-35.008 21.042-34.474 22.282.534 1.239-.206-.206 23.208-9.683 37.327-15.109 82.875-14.885 108.35 22.084-25.126-16.745-47.192-12.908-77.532-8.475-14.886 2.175-41.521 12.727-38.439 15.685 3.083 2.958 6.756.885 18.587-2.131 11.83-3.016 36.209-4.578 51.21-3.328 33.051 2.756 66.823 2.405 83.113 58.19-27.674-27.797-66.764-30.95-100.449-32.254-7.138-.276-51.376 2.213-49.469 13.624 1.146 6.854 21.514 2.082 27.245 1.694 5.732-.388 32.256-2.72 39.832-2.801 7.577-.081 23.899-.624 43.833 8.542 19.935 9.166 29.75 21.346 32.725 25.82 2.974 4.474 8.519 19.106 8.138 29.924-.305 8.655-.154 17.823-.04 21.325-4.337-6.826-16.213-22.241-34.455-33.484-22.802-14.053-41.118-18.836-49.853-20.338-8.735-1.502-22.446-1.816-22.707 3.318-.262 5.133 13.585 12.219 20.42 15.274 6.836 3.055 22.932 9.863 28.876 13.057 5.943 3.194 22.43 14.689 32.978 24.594 10.548 9.904 12.854 18.568 14.058 32.621.963 11.243-8.043 35.413-11.106 39.713 2.096-6.618-.279-16.698-8.615-26.824M111.383 100.799l-8.878-.95m8.878.95c1.162-6.501.362-29.55 3.999-41.6 4.547-15.063 10.405-22.855 17.336-30.618M111.383 100.8c3.272-6.757 12.484-23.136 23.152-34.59 13.335-14.32 29.486-27.402 38.466-33.72m-61.618 68.31c2.118.575 4.938 1.511 8.361 2.844m-8.361-2.844c-32.221 5.257-73.49 49.568-65.874 82.478m252.125 59.085c-30.247-11.889-9.745 10.842-23.167 9.844-10.801-.802-22.329-4.188-41.418-25.965-11.607-13.241-26.557-53.198-32.213-43.49-6.476 11.114 1.84 35.546 17.324 56.338 19.062 25.596 46.428 30.173 48.834 31.341-3.764-.052-30.447 13.238-44.083 10.932-10.208-1.727-27.942-5.994-42.653-29.535-14.711-23.54-17.181-55.132-17.782-63.813-.48-6.944 2.019-26.3 3.329-35.11-.226-4.352-2.216-11.193-8.368-3.742-7.689 9.314-4.595 51.087-.515 70.27 4.656 21.892 20.951 51.225 39.748 65.764-7.068-1.241-28.632-2.321-42.22-8.417-16.985-7.621-27.809-15.148-34.243-34.051-6.433-18.903-8.195-34.927-7.705-49.466.491-14.539 5.244-32.874 7.28-38.527 1.629-4.522 7.542-16.079 9.379-21.606-14.303 3.879-20.831 23.604-23.518 36.702-2.084 10.157-5.104 26.104-4.922 34.475.336 15.448 2.118 53.031 22.253 60.63-18.09-3.753-40.744-23.157-48.697-38.841-8.868-17.486-6.581-37.894-4.598-44.994 1.983-7.1 11.554-31.919 16.961-40.127 4.325-6.567 7.787-12.989 8.977-15.38 1.186-2.103 2.273-5.632-2.878-2.923-5.15 2.709-12.112 11.709-14.949 15.871-2.213 3.77-7.044 12.269-8.665 16.102-2.026 4.792-8.063 21.476-8.976 27.747-.913 6.272-1.935 16.264-.469 24.082 1.173 6.254 4.208 13.004 5.58 15.597-14.627-3.721-36.383-23.449-38.485-49.763-2.025-25.329 15.486-41.753 31.344-56.803 2.01-1.519 5.966-7.132-2.685-5.658-21.143 3.604-37.257 30.791-40.902 49.789-4.12-2.715-12.45-20.675-12.886-31.753-.63-16.046 7.294-30.434 21.02-38.214m274.968 152.694c-8.007-6.51-32.684-26.732-39.519-32.702-7.309-6.384-26.897-16.291-46.966-46.033M102.505 99.849c-7.038-6.397-14.558-11.483-20.707-14.712-6.148-3.228-18.581-5.585-33.53-4.286-8.24.716-17.964 4.489-25.601 8.817m79.838 10.18c-12.58-.415-72.585-4.047-83.61 18.53m83.61-18.53c-15.518-4.73-49.18-14.147-59.678-13.959-10.5.189-17.815 2.598-20.16 3.78m107.117 18.285c-5.797 5.021-18.854 18.291-24.709 31.199-7.32 16.134-18.416 43.816-20.39 63.525-1.578 15.767.971 25.951 2.443 29.072m42.656-123.796a172.837 172.837 0 0 0-10.04-4.311m10.04 4.311a231.302 231.302 0 0 1 8.866 4.362m12.573 6.95c-3.632 3.647-11.515 17.943-13.985 45.948-3.088 35.007-.541 52.4 3.79 69.515 3.464 13.692 7.999 23.127 9.833 26.132m.362-141.595a273.756 273.756 0 0 0-12.573-6.95m12.573 6.95a314.5 314.5 0 0 1 18.598 11.825m12.69 9.134a355.441 355.441 0 0 1 10.35 8.122 935.307 935.307 0 0 1 18.288 15.28m-28.638-23.402c-1.734 6.574-2.125 24.814.649 48.962 3.539 30.803 6.314 35.381 14.69 56.476 5.244 13.208 14.077 19.904 18.415 22.084m-33.754-127.522a340.75 340.75 0 0 0-12.69-9.134m-50.077-27.448c9.181-9.534 31.056-30.116 45.115-36.175 17.574-7.573 27.052-12.514 41.29-15.465m-67.499 60.313c2.984-4.674 15.464-15.334 41.517-20.585 32.566-6.563 49.646-7.555 77.598-5.396 22.362 1.728 33.178 8.399 35.791 11.518m-123.735 33.238c7.673-1.551 30.451-4.893 60.181-5.851 29.729-.957 61.593 16.196 73.808 24.892m-92.661 13.495c15.448 5.012 56.295 27.073 66.423 35.738 10.128 8.666 19.72 19.709 23.25 24.147"/></svg>