<svg xmlns="http://www.w3.org/2000/svg" width="577" height="393" fill="none"><path stroke="#fff" stroke-miterlimit="10" stroke-width="2" d="M296.326 200.755s-.998-37.68 23.84-49.889c24.839-12.209 28.816-11.108 28.816-11.108s4.963 11.108 1.983 15.345c-2.98 4.249-4.907-1.125-4.907-2.118 0-.994 5.96-10.941 21.23-10.941s23.281 8.164 23.281 8.164-.191 8.354-4.47 12.137c0 0 6.15-8.164 16.021-7.565 0 0 13.78 12.137 18.441 21.09 0 0-11.921 17.715-33.163 19.702 0 0 10.8 2.191 13.601 5.171 0 0-37.442 14.531-44.892 7.757-7.45-6.775 3.35-6.572 6.521-3.184 3.17 3.387 9.5 13.13 9.5 13.13s-30.361 8.559-36.321-6.571l1.68 11.946s-28.692-5.77-37.072-15.525c-8.38-9.755 19.931-24.286 34.462-27.865 14.53-3.579 43.032-6.165 51.603-4.381m-97.605 20.719s-14.531-28.655-44.701-31.444c0 0-4.471 9.947 1.49 15.728 0 0-10.8-21.294-47.693-11.347 0 0 6.71 17.117 11.55 16.722 4.84-.395 5.4-7.565.191-7.757-5.221-.203-27.292-.095-39.302 13.729 0 0 9.31 7.565 16.76 6.368 0 0-13.78 1.197-25.331 32.641 0 0 25.331 11.539 39.123 6.368 0 0-4.84 15.13-10.431 15.92 0 0 31.292-1.197 34.832-12.736 3.54-11.539-8.01-7.17-7.26-3.579.751 3.591 8.571 16.315 8.571 16.315s20.491 1.197 29.801-15.92c0 0 2.61 10.749-1.86 14.328 0 0 38.002-26.668 36.882-47.364-1.12-20.695-82.737 2.406-91.521 11.646m19.595-30.354s23.471 6.762 22.732 19.498m20.491 0s-4.47 17.117-24.962 21.497m128.157-66.61s-22.631 7.971-24.536 21.365m-17.937 9.42s30.552 3.986 45.822-1.592m-52.645-45.113s17.388-27.063 7.944-48.824c0 0-11.921 4.776-11.921 9.025 0 0 9.938-42.983-4.47-62.625 0 0-7.45 3.184-8.447 10.079 0 0-21.365-33.431-29.801-37.154 0 0-4.717 9.025-2.981 19.905 0 0-13.164-29.193-28.311-32.904 0 0-5.713 10.88-3.73 18.314 0 0-24.838-17.775-33.286-11.408 0 0-7.45 21.498 0 32.642 0 0-5.221-2.12-9.433.801 0 0-3.977 28.13 20.368 44.85 0 0-11.674-1.591-12.671 2.12-.998 3.71 3.977 23.089 30.305 35.298 0 0-12.167.526-12.918 2.657 0 0 16.391 29.194 25.578 33.168m49.922 20.144S240.185 68.072 235.715 52.153c-4.47-15.92 15.898-16.183 21.107-3.448 9.378 22.922 0 62.685 0 62.685m41.24-6.428s-.751 38.483-15.651 48.824m0 76.426s-18.508 21.091-16.267 39.799c0 0 16.76 2.394 20.86-2.789 0 0-16.76 10.354-16.39 44.575 0 0 10.43 1.197 16.39-7.17 0 0-16.39 16.315-2.61 46.969 0 0 11.539-8.355 11.92-17.116 0 0-5.96 20.3 13.792 42.192 0 0 6.33-2.788 8.57-12.735 0 0 11.181 19.498 27.942 27.063 0 0 16.76-13.538 15.27-42.588 0 0 8.201 5.578 16.021 7.17 0 0 10.43-19.498 2.241-44.982 0 0 9.31 7.17 13.41 4.776 0 0-5.96-42.193-25.331-50.153 0 0 11.181 1.197 13.411-1.986 0 0-11.966-36.221-34.272-39.404m-49.306-9.54s16.917 14.722 29.387 63.283c12.469 48.561 16.939 63.283 12.099 70.058-4.839 6.775-17.511 6.368-16.76-3.986.751-10.353 1.49-49.757 15.651-58.507m-14.923-45.772s-14.531 10.749-17.88 31.444c-3.35 20.696-2.241 30.654-2.241 30.654m29.443-186.689s9.691-23.353 31.291-33.563c0 0 5.96 2.394 6.711 16.781 0 0 11.181-30.977 37.251-33.371 26.082-2.394 30.552 4.776 30.552 4.776s13.041 24.729 0 20.06c-13.041-4.667 8.201-17.666 19.371-16.876 11.169.79 43.962 10.617 60.353 32.377l-7.451 17.775s20.122-7.959 26.082-6.367c5.96 1.591 35.761 41.666 38.002 64.216 0 0-22.351 28.141-53.653 28.931 0 0-3.731 11.132 2.98 19.091 0 0-66.19 8.224-51.659-6.104 14.531-14.328 2.24 23.089 6.957 31.205 0 0-42.102 9.133-59.053-8.379l-6.521 15.92s-22.642-2.909-37.251-21.893m163.917-74.032c-52.902-17.906-112.516-2.633-112.516-2.633s5.221 32.473 49.183 39.655m13.411-81.202s-23.841 11.192-26.821 39.835m-43.402-59.74s-16.212 9.324-23.662 38.494m-173.608 7.553s-36.882-38.614-71.299-21.114l5.915 11.371s-21.432-14.46-54.684-6.512c-33.251 7.948-33.991 25.184-33.991 25.184s11.584 21.665 16.256 10.414c4.672-11.252-25.13-1.077-33.252 3.232-8.133 4.309-28.815 22.287-33.251 36.639 0 0 24.39 1.424 25.129 4.297.74 2.872-36.949 12.927-42.125 50.643 0 0 12.56 14.005 33.252 19.75 0 0 16.995-2.011 18.474-8.187 0 0-.986 12.975-4.683 16.446 0 0 8.862 9.695 37.196 13.765 0 0 35.078-8.869 24.546-14.914-10.531-6.045-2.487 20.432-8.29 27.841 0 0 16.995 12.927 51.48 7.182 0 0 16.256-5.027 22.171-16.997 0 0 2.219 14.842.247 19.87 0 0 55.423-10.534 59.613-39.273 4.19-28.739 5.176 4.788 5.176 8.858 0 0 26.104-14.124 28.569-28.5m-113.513-50.081s-74.01.527-126.666 38.746m21.353-53.6s49.184 6.272 64.084 28.081m37.756 0s-3.473 19.151-29.801 45.161m-4.975-105.62s13.904-2.657 34.776 0c20.861 2.658 25.331 9.516 25.331 9.516"/></svg>