<svg xmlns="http://www.w3.org/2000/svg" width="345" height="304" fill="#fad207"><path stroke="#000" stroke-miterlimit="10" stroke-width="7" d="M177.011 26.166S197.832-.456 232.016 1.063c34.184 1.518 64.741 22.541 74.217 57.416 9.215 33.909.697 63.729-16.038 80.71-16.229 16.452-50.053 17.986-50.053 17.986m-11.522 71.222s13.086 1.105 21.074 21.338C259.913 275.62 236.202 301 236.202 301c.782-16.321-21.182-18.876-38.515-27.542-17.334-8.667-12.236-34.691-5.098-46.802 7.137-12.111 22.109-17.111 31.017-13.391 7.735 3.229 1.442 17.034-7.306 10.062-13.017-10.377-8.409-33.018 49.708-49.048C324.126 158.249 343 221.418 343 221.418s-8.494-4.418-28.212.337c-19.717 4.763-15.294 9.518-39.09 10.546-23.796 1.02-51.241-28.47-51.241-28.47m0 .007s75.666-27.481 87.119-7.002c11.453 20.478-55.948-10.301-55.948-10.301m-51.486 47.684s23.964 25.195 27.023 30.295c3.059 5.101-1.533 13.515-7.39 9.695-5.865-3.827.69-34.652.69-34.652m38.852-35.351s12.45 2.623 21.289 11.122M33.966 50.119c16.43-21.253 53.933-40.32 99.309-35.22 45.377 5.1 72.914 23.462 90.753 55.599 17.847 32.136 15.294 96.41-2.553 121.406-17.839 25.004-48.082 58.245-106.783 56.067-56.477-2.094-99.308-38.925-111.152-91.985C-6.978 108.862 17.53 71.38 33.967 50.119Zm47.639 56.435c-4.37 1.695-5.612 11.735 0 13.261 5.611 1.534 13.086-2.04 11.73-6.634-1.365-4.587-6.463-8.667-11.73-6.627Zm110.623-25.472c2.017-3.842-2.667-10.285-7.282-7.432-4.623 2.853-7.697 9.802-4.263 11.474 3.442 1.672 9.115.59 11.545-4.042ZM87.216 144.796c-1.84 3.927 3.128 10.147 7.613 7.087 4.485-3.061 7.245-10.14 3.734-11.651-3.504-1.511-9.13-.169-11.347 4.564ZM272.425 39.259c-1.71 1.35 3.503 23.216-2.101 24.82-5.604 1.602-6.202-4.687-3.503-5.492 2.698-.798 13.853 17.157 16.214 16.436 2.361-.713-.897-24.674 3.902-23.984 4.807.683 5.006 6.52 2.001 6.865-2.998.337-14.804-19.995-16.513-18.646ZM166.754 48.73c5.719 12.126-30.405 88.264-39.88 77.335-9.476-10.922 53.487-66.912 65.83-64.19 12.342 2.724 37.534 55.462 25.789 65.478-11.745 10.017-92.685 16.115-91.266 7.502 1.418-8.614 79.521-7.916 84.282 4.778 4.761 12.693 3.795 20.586-3.189 35.695-6.984 15.11-15.202 34.967-31.846 31.493-16.635-3.475-59.566-57.885-49.876-63.913 9.69-6.029 36.315 57.846 27.545 75.74-7.306 14.918-67.333 19.381-72.952-3.245-6.57-26.461 29.53-75.195 35.479-71.997 5.949 3.199-28.894 63.353-55.404 60.799-26.51-2.561-39.005-49.125-32.42-66.137 6.585-17.012 81.791-11.88 83.493-3.835 1.702 8.038-78.847-11.742-85.011-21.13-6.164-9.388 21.442-66.72 47.07-62.885 25.629 3.835 53.005 73.216 45.431 77.189-7.575 3.973-41.367-72.664-24.977-87.628 16.39-14.964 64.036-7.747 71.902 8.95Z"/></svg>