<svg xmlns="http://www.w3.org/2000/svg" width="560" height="427" fill="none"><path stroke="#fff" stroke-miterlimit="10" stroke-width="2" d="M559 19.014S442.71 41.67 306.442 125.244c-136.268 83.573-170.391 148.743-170.391 148.743M438.73 51.449s-14.824-11.609-26.708-16.361c-11.883-4.753-36.014-12.6-42.044-15.338-6.021-2.736-28.448-22.947-30.776-17.963-2.327 4.984 9.705 20.788 18.434 24.135 8.73 3.347 14.804 4.376 26.022 9.32 11.217 4.944 28.81 17.198 32.046 17.908 5.289 1.162 7.806-4.09 2.241-6.04-5.564-1.949-16.353 1.395-22.981 1.494-6.629.099-77.976-7.747-86.918-10.107-8.941-2.36-30.722 2.367-2.394 11.172 28.327 8.805 71.676 5.342 95.844 9.573l24.166 4.242m23.292-9.656c-.115.316-47.944 31.13-73.177 63.658-25.233 32.528 6.132 5.174 11.599.205 5.476-4.967 21.399-17.56 35.901-29.437 8.311-6.802 16.629-11.687 22.813-15.19m0 0c2.521-8.316 2.203-13.058 7.265-13.49 5.88-.495 5.299 4.644 2.125 7.708-1.36 1.308-4.787 3.165-9.39 5.782Zm0 0c-1.834 6.038-3.723 13.305-5.687 20.08-1.787 6.172-3.635 11.927-5.546 15.979-6.912 14.626-41.565 52.949-48.166 63.161-6.593 10.224-34.225 48.072-30.283 51.716 3.943 3.644 13.161-11.497 16.768-16.534 3.046-4.272 52.556-68.932 74.409-104.594m0 0c3.992-6.523 7.064-12.064 8.753-16.105 6.975-16.64 9.995-31.523 11.27-40.12m-20.023 56.225c-1.845 5.342-4.811 12.729-9.584 22.452-11.734 23.872-46.892 68.968-49.981 73.086-3.09 4.128-16.789 31.337 6.57 4.589 23.362-26.757 43.211-59.122 48.25-67.967 5.05-8.854 11.641-19.068 17.35-39.826 5.707-20.748 2.523-24.221 2.523-24.221m-18.945 10.13s-60.809 58.64-69.25 76.027c-8.448 17.375-15.589 31.608 7.545 4.457 23.133-27.15 37.851-45.865 42.65-50.633 4.799-4.768 15.698-17.81 15.698-17.81m-34.214-33.101c-12.759 6.223-44.538 21.554-57.772 26.458-16.761 6.211-40.703 16.6-53.107 18.648-12.404 2.047-40.566 5.675-8.908-5.428 31.651-11.114 61.135-22.365 71.485-26.574 3.639-1.478 7.628-4.057 11.445-6.54m0 0c7.018-4.568 13.407-8.801 15.834-5.199 1.286 1.906-5.674 3.639-15.834 5.198Zm0 0c-19.421 2.99-50.547 5.338-58.14 7.021-11.566 2.557-47.851 8.836-60.407 10.135-12.556 1.298-30.63 3.391-30.63 3.391s-31.757-1.636-.137-9.65c31.63-8.013 114.866-17.47 114.866-17.47l17.529-4.007.011-.008m-6.746 97.484c-7.201 15.886-19.891 44.699-32.083 76.317-18.433 47.834-13.762 39.248-25.156 65.951-11.383 26.695-8.614 4.942-6.161-2.084 2.451-7.017 8.37-28.753 13.264-42.798 2.646-7.573 11.117-28.278 20.061-49.952m30.075-47.434c.415-1.449.857-2.986 1.326-4.64 9.074-32.042 12.384-47.481 12.384-47.481s-13.683 6.554-38.066 40.992c-24.376 34.45-30.322 48.941-33.739 56.092-3.426 7.149-11.192 36.048 6.36 5.567 17.551-30.471 32.553-51.265 39.611-59.241 2.299-2.598 5.434-6.136 8.462-9.843m3.662 18.554c-7.695 26.668-7.579 21.092-20.4 60.013-13.519 41.032 4.526 8.25 7.503 1.694 2.986-6.555 15.693-40.883 22.58-68.593 5.625-22.662 10.443-47.39 12.008-55.663m-51.766 109.983.004-.02m-.004.02c-5.296 6.157-13.065 15.991-19.52 27.293-10.953 19.17-18.412 39.968-35.472 68.148-17.059 28.179-8.487 2.9-5.809-3.724 2.679-6.623 28.862-62.702 46.06-86.718 9.971-13.925 18.72-23.031 24.319-28.219m-9.578 23.22s.013-.018.004-.02m0 0c3.214-7.797 6.494-15.724 9.574-23.2m0 0 .002-.01c4.258-10.326 8.154-19.802 11.037-26.98a277.263 277.263 0 0 0 5.796-15.778m0 0c4.987-15.05 5.427-20.677 8.873-18.295 3.166 2.185-2.614 10.604-8.873 18.295Zm-25.327-15.915c-7.562.654-20.951 1.868-34.804 3.392l-.009-.002m0 0c-11.468 1.254-23.236 2.72-32.266 4.265l-.009-.002m32.275-4.263c-12.647-3.268-40.069-9.497-74.211-12.241-47.349-3.798-72.693 14.59-76.633 16.807-3.938 2.208-12.141 9.656 2.986 5.147 15.137-4.506 25.03-11.003 58.088-11.061 23.919-.039 46.709 3.602 57.495 5.611m0 0c-2.604.448-4.975.907-7.05 1.36-22.456 4.916-94.421 29.311-106.551 34.496-12.129 5.184-39.973 26.446 3.666 10.809 43.648-15.635 66.276-22.81 73.91-26.141 1.783-.768 6.353-1.818 12.284-3.037m0 0c9.341-1.931 22.04-4.295 32.409-6.698m-32.409 6.698c-18.882 11.427-55.963 33.608-80.493 46.65-34.111 18.129-19.763 21.718 6.489 9.386 19.46-9.133 76.642-46.349 106.413-62.734m0 0c11.293-2.608 19.843-5.267 18.386-7.48-.944-1.425-7.996 1.758-18.386 7.48Zm20.606 5.302c-1.433 9.028-4.387 25.458-8.593 38.012-6.118 18.253-28.374 94.167-38.281 116.888-9.906 22.721-15.501 29.742-7.205-1.626 8.295-31.368 24.745-77.237 28.527-90.509 3.789-13.259 9.581-30.208 9.581-30.208s-61.748 95.915-65.19 101.683c-3.442 5.768-32.138 36.478-3.829-9.47 28.301-45.959 44.937-72.163 57.763-92.34a501.858 501.858 0 0 0 14.06-23.554m-75.367 59.477c-2.786 21.076-10.587 77.47-17.927 104.602-9.119 33.751-21.284 69.921-22.724 73.727-1.45 3.805-18.367 31.322-6.046-4.119 12.32-35.441 21.949-58.41 29.147-97.068 4.745-25.532 8.052-53.635 9.755-69.789m-7.023 6.928c-6.771-2.284-24.211-7.079-48.031-5.557-30.949 1.963-72.328 8.469-95.617 12.855-23.29 4.385-26.226 13.715 5.201 8.06 31.426-5.646 64.543-8.849 79.037-10.404 14.492-1.545 31.116-1.243 38.603-.93 4.823.197 10.841 1.535 14.514 2.457-3.209 13.514-34.053 119.509-48.121 146.986-14.078 27.475-10.205 9.409-8.051 2.315 2.144-7.085 11.349-35.318 22.699-64.776 11.353-29.467 20.332-62.565 20.809-66.248.237-1.81-.094-2.475-1.625-2.313-1.564.144-4.384 1.154-9.15 2.636a877.24 877.24 0 0 0-17.867 5.806m0 0c-10.496 3.524-23.261 8.006-34.867 12.605-19.952 7.893-45.034 17.725-73.948 38.062-28.914 20.337-17.608 4.29-4.58-6.543S42.48 280.22 69.54 268.526c27.062-11.694 63.016-23.763 75.249-26.512 6.116-1.375 12.557-2.147 17.498-2.586m-34.355 16.883c-8.09 7.712-21.551 20.166-31.819 27.748-15.711 11.605-40.055 26.781-56.557 40.619C23.062 338.519 7.2 361.108 5.13 363.395c-2.062 2.289-10.836 22.687 6.43 5.241 17.278-17.454 15.71-17.466 35.003-35.49 13.223-12.363 44.03-35.255 68.984-52.53m28.38-18.687c-6.717 4.004-16.929 10.75-28.38 18.687m0 0c-8.343 9.156-18.731 21.848-27.432 36.339-17.747 29.578-34.725 62.145-48.63 93.232-13.905 31.086 5.895 7.74 9.011 2.033 3.107-5.709 13.764-30.425 33.618-67.272 11.06-20.504 28.202-37.988 39.857-50.187m0 0c2.736-10.556 5.081-21.365 11.575-17.922 3.511 1.859-2.299 8.21-11.575 17.922Zm0 0c-.602 2.319-1.219 4.623-1.903 6.757-3.808 11.888-10.573 31.704-18.219 47.541-7.645 15.838-17.1 30.583-30.55 53.716-13.46 23.131.288 10.399 4.484 5.485 4.203-4.902 13.645-15.167 32.336-55.373 18.691-40.207 31.832-78.02 31.832-78.02"/></svg>