<svg xmlns="http://www.w3.org/2000/svg" width="357" height="303" fill="none"><path stroke="#fff" stroke-miterlimit="10" stroke-width="2" d="M256.44 52.29s-2.366-3.516 12.465-20.463c14.832-16.946 44.975-1.008 44.975-1.008s-22.562-18.503-45.001-19.787c-22.439-1.284-38.36 27.53-40.966 35.497-2.61 7.957 3.866 6.224 11.49.11 7.624-6.112-3.54-44.398-3.54-44.398s-13.26 17.306-27.871 40.917C193.38 66.77 185.184 70.21 179.039 76.254c-6.135 6.04-19.185 10.907-26.206 8.83-7.02-2.077-23.891-22.038-50.889-24.002-26.999-1.964-49.695 8.33-49.695 8.33s24.392.635 36.571 7.153c12.18 6.518 9.532 18.032 16.812 19.562 7.28 1.53 15.949-13.1 3.761-12.328-12.189.773-46.106-.837-57.033 13.906C41.432 112.45 18.895 132.88.624 133.726c0 0 41.632 1.555 59.74-14.33 18.109-15.885 45.546-7.55 45.546-7.55l38.254-4.325s17.447-3.692 13.892-28.61c-3.554-24.917-1.287-45.157 4.001-46.05l16.166 2.519s-12.257 10.878-1.78 34.241c10.478 23.364 13.72 20.844 13.72 20.844m-16.297 10.562c14.746-6.087 40.501-36.657 69.166-46.326 37.922-12.788 88.335 6.313 108.148 71.563 18.245 60.088-18.588 132.756-101.211 160.696-95.1 32.154-161.084 11.341-194.381-61.534-25.718-56.312.053-97.4 28.1-108.618 25.934-10.376 62.419-4.321 90.178-15.781Zm-60.731 28.869c27.353-10.544 50.219-2.097 62.129 19.786 7.358 13.523 24.414 59.936 29.536 75.47 5.122 15.534 8.677 41.799-24.505 50.754-30.247 8.155-52.235.6-72.083-20.864-19.695-21.295-39.577-58.46-32.02-86.682 7.556-28.222 21.614-32.55 36.943-38.464Zm133.458-47.814c15.17-5.112 46.523-9.726 59.433 13.806 12.901 23.535 27.251 68.723 17.968 96.189-9.28 27.475-35.475 61.598-71.39 47.954-27.171-10.321-51.228-108.242-44.646-125.045 9.441-24.095 38.635-32.904 38.635-32.904Zm-108.917 59.91c-3.964 2.104-7.187 6.954.412 15.404 8.585 9.536 16.536 9.483 14.732-.981-2.147-12.523-9.479-17.43-15.144-14.423Zm96.125-33.987c-4.515.613-9.427 4.035-5.682 14.483 4.228 11.793 11.651 14.432 14.103 4.093 2.927-12.397-1.965-19.453-8.421-18.576Zm43.865-5.686c-4.352-1.279-10.383-.195-11.945 10.713-1.765 12.315 3.658 17.705 10.74 9.409 8.495-9.96 7.428-18.296 1.205-20.122Zm28.957 46.556c.128-4.236-2.657-9.318-14.392-7.689-13.249 1.829-17.335 8.157-6.778 12.177 12.656 4.82 20.992 1.571 21.17-4.488Zm-5.617 42.413c2.495-3.547 2.982-9.231-7.935-13.539-12.321-4.872-19.367-1.46-12.641 7.095 8.068 10.249 17.01 11.519 20.576 6.444ZM276.4 227.271c3.864-2.25 6.866-7.225-1.103-15.381-9.003-9.205-16.939-8.837-14.674 1.54 2.707 12.445 10.252 17.07 15.777 13.841Zm-173.138-64.13c-3.261 2.966-5.056 8.413 4.593 14.815 10.898 7.229 18.572 5.312 13.988-4.394-5.483-11.619-13.913-14.659-18.581-10.421Zm-3.588 51.722c.842 4.159 4.734 8.578 15.829 4.68 12.522-4.4 15.07-11.387 3.833-13.241-13.477-2.218-20.875 2.601-19.662 8.561Zm29.572 36.386c3.445 2.783 9.443 4.006 15.542-5.426 6.889-10.657 4.214-17.602-5.841-12.587-12.035 6.002-14.623 14.042-9.701 18.013Zm38.397 12.838c4.063 1.915 10.207 1.752 13.652-8.773 3.888-11.892-.523-18.022-8.966-10.895-10.117 8.54-10.516 16.92-4.686 19.668Z"/></svg>